<svg xmlns="http://www.w3.org/2000/svg" width="256" height="256" viewBox="0 0 256 256" role="img" aria-label="Samiksha Portfolio Logo">
  <defs>
    <linearGradient id="g" x1="0" x2="1" y1="0" y2="1">
      <stop offset="0%" stop-color="#ff7a59"/>
      <stop offset="50%" stop-color="#ff3d81"/>
      <stop offset="100%" stop-color="#7c5cff"/>
    </linearGradient>
    <filter id="s" x="-20%" y="-20%" width="140%" height="140%">
      <feOffset dy="4" in="SourceAlpha" result="off"/>
      <feGaussianBlur stdDeviation="6" in="off" result="blur"/>
      <feColorMatrix type="matrix" values="0 0 0 0 0   0 0 0 0 0   0 0 0 0 0   0 0 0 0.15 0"/>
      <feMerge>
        <feMergeNode/>
        <feMergeNode in="SourceGraphic"/>
      </feMerge>
    </filter>
  </defs>
  <rect rx="56" ry="56" x="16" y="16" width="224" height="224" fill="url(#g)" filter="url(#s)"/>
  <g fill="#ffffff">
    <!-- Monogram SP -->
    <path d="M74 132c0-28 22-50 50-50h14c6 0 10 4 10 10s-4 10-10 10h-14c-16 0-30 14-30 30s14 30 30 30h22c6 0 10 4 10 10s-4 10-10 10h-22c-28 0-50-22-50-50z"/>
    <path d="M182 82c6 0 10 4 10 10v28c0 22-18 40-40 40h-18c-6 0-10-4-10-10s4-10 10-10h18c11 0 20-9 20-20v-28c0-6 4-10 10-10z"/>
  </g>
</svg>
